# xmcd
#
# Track frame offsets: 
#        150
#        16204
#        35402
#        53248
#        69574
#        84535
#        103475
#        123255
#        146004
#        163284
#        177321
#        212889
#        231176
#        251488
#
# Disc length: 3561 seconds
#
# Revision: 1
# Processed by: cddbd v1.5.2PL0 Copyright (c) Steve Scherf et al.
# Submitted via: ExactAudioCopyFreeDBPlugin 1.0
#
DISCID=cb0de70e
DTITLE=Anthony Hamilton - The Point of It All
DYEAR=2008
DGENRE=R&B
TTITLE0=The News
TTITLE1=Cool (feat. David Banner)
TTITLE2=The Day We Met
TTITLE3=Diamond in the Rough
TTITLE4=I Did It for Sho
TTITLE5=Hard to Breathe
TTITLE6=Soul's on Fire
TTITLE7=Please Stay
TTITLE8=The Point of it All
TTITLE9=Fallin' In Love
TTITLE10=Prayin For You-Superman
TTITLE11=Her Heart
TTITLE12=Fine Again
TTITLE13=Shes Gone
EXTD=
EXTT0=
EXTT1=
EXTT2=
EXTT3=
EXTT4=
EXTT5=
EXTT6=
EXTT7=
EXTT8=
EXTT9=
EXTT10=
EXTT11=
EXTT12=
EXTT13=
PLAYORDER=
